Normalized EMG Linear Envelopes
nRows=225
nColumns=4

endheader
time	 med_gas_r	  soleus_r	 tib_ant_r	
2.99395	  0.007408	  0.024979	  0.005101	
3.02722	  0.007311	  0.025341	  0.005097	
3.06048	  0.007233	  0.025605	  0.005092	
3.09375	  0.007197	  0.025715	  0.005051	
3.12702	  0.007227	  0.025666	  0.004969	
3.16028	  0.007293	  0.025536	  0.004876	
3.19355	  0.007335	  0.025424	  0.004775	
3.22681	  0.007313	  0.025295	  0.004688	
3.26008	  0.007228	  0.025114	  0.004641	
3.29335	  0.007115	  0.024947	  0.004622	
3.32661	  0.007002	  0.024839	  0.004621	
3.35988	  0.006891	  0.024746	  0.004654	
3.39315	  0.006764	  0.024598	  0.004706	
3.42641	  0.006615	  0.024443	  0.004758	
3.45968	  0.006439	  0.024283	  0.004810	
3.49294	  0.006239	  0.024043	  0.004846	
3.52621	  0.006058	  0.023725	  0.004855	
3.55948	  0.005942	  0.023422	  0.004865	
3.59274	  0.005915	  0.023172	  0.004883	
3.62601	  0.005982	  0.022963	  0.004899	
3.65927	  0.006122	  0.022889	  0.004926	
3.69254	  0.006284	  0.022997	  0.004966	
3.72581	  0.006407	  0.023260	  0.005009	
3.75907	  0.006466	  0.023574	  0.005061	
3.79234	  0.006497	  0.023806	  0.005119	
3.8256	  0.006531	  0.024006	  0.005173	
3.85887	  0.006578	  0.024237	  0.005231	
3.89214	  0.006629	  0.024429	  0.005298	
3.9254	  0.006660	  0.024443	  0.005348	
3.95867	  0.006685	  0.024233	  0.005392	
3.99194	  0.006726	  0.023941	  0.005452	
4.0252	  0.006797	  0.023784	  0.005518	
4.05847	  0.006909	  0.023929	  0.005607	
4.09173	  0.007053	  0.024389	  0.005722	
4.125	  0.007212	  0.024992	  0.005826	
4.15827	  0.007415	  0.025606	  0.005940	
4.19153	  0.007672	  0.026230	  0.006055	
4.2248	  0.007951	  0.026871	  0.006140	
4.25806	  0.008204	  0.027509	  0.006182	
4.29133	  0.008384	  0.028223	  0.006130	
4.3246	  0.008426	  0.029097	  0.005918	
4.35786	  0.008305	  0.030101	  0.005456	
4.39113	  0.007995	  0.030978	  0.004588	
4.4244	  0.007547	  0.031241	  0.003149	
4.45766	  0.007044	  0.030307	  0.001037	
4.49093	  0.006563	  0.028155	 -0.001807	
4.52419	  0.006149	  0.025201	 -0.005318	
4.55746	  0.005845	  0.021898	 -0.009172	
4.59073	  0.005699	  0.018659	 -0.012778	
4.62399	  0.005762	  0.015858	 -0.015138	
4.65726	  0.006084	  0.014171	 -0.014729	
4.69052	  0.006708	  0.014539	 -0.009484	
4.72379	  0.007702	  0.018196	  0.003242	
4.75706	  0.009218	  0.026589	  0.026530	
4.79032	  0.011414	  0.041115	  0.063446	
4.82359	  0.014417	  0.062950	  0.116368	
4.85685	  0.018292	  0.092659	  0.185913	
4.89012	  0.023004	  0.129507	  0.269642	
4.92339	  0.028388	  0.171180	  0.363366	
4.95665	  0.034263	  0.215359	  0.464461	
4.98992	  0.040356	  0.259351	  0.567630	
5.02319	  0.046115	  0.299222	  0.665216	
5.05645	  0.050995	  0.331654	  0.749339	
5.08972	  0.054655	  0.353757	  0.814749	
5.12298	  0.057213	  0.363453	  0.863632	
5.15625	  0.058786	  0.362132	  0.900017	
5.18952	  0.059379	  0.356280	  0.924314	
5.22278	  0.059333	  0.352878	  0.935242	
5.25605	  0.059222	  0.354909	  0.933248	
5.28931	  0.059386	  0.361723	  0.922066	
5.32258	  0.059801	  0.371517	  0.906470	
5.35585	  0.060206	  0.380146	  0.891233	
5.38911	  0.060478	  0.382732	  0.879210	
5.42238	  0.060504	  0.378284	  0.871768	
5.45565	  0.060044	  0.372045	  0.868515	
5.48891	  0.059113	  0.368767	  0.865116	
5.52218	  0.057885	  0.368855	  0.856632	
5.55544	  0.056523	  0.370862	  0.843103	
5.58871	  0.055348	  0.372849	  0.829056	
5.62198	  0.054638	  0.372125	  0.818479	
5.65524	  0.054476	  0.368209	  0.814716	
5.68851	  0.054736	  0.360773	  0.819557	
5.72177	  0.055368	  0.347705	  0.834652	
5.75504	  0.056193	  0.330754	  0.858419	
5.78831	  0.056976	  0.314519	  0.884963	
5.82157	  0.057654	  0.302100	  0.906733	
5.85484	  0.057966	  0.294399	  0.919205	
5.8881	  0.057826	  0.291416	  0.919538	
5.92137	  0.057346	  0.292688	  0.905329	
5.95464	  0.056465	  0.297420	  0.880307	
5.9879	  0.055108	  0.305472	  0.852640	
6.02117	  0.053507	  0.313792	  0.828464	
6.05444	  0.052170	  0.317924	  0.811068	
6.0877	  0.051490	  0.318172	  0.800981	
6.12097	  0.051458	  0.317982	  0.796060	
6.15423	  0.051822	  0.319084	  0.792937	
6.1875	  0.052161	  0.320934	  0.791420	
6.22077	  0.052292	  0.321950	  0.791735	
6.25403	  0.052238	  0.324063	  0.793173	
6.2873	  0.052200	  0.329066	  0.793872	
6.32056	  0.052428	  0.335732	  0.792417	
6.35383	  0.052911	  0.342314	  0.788636	
6.3871	  0.053466	  0.346504	  0.782471	
6.42036	  0.053888	  0.347056	  0.773864	
6.45363	  0.053918	  0.342336	  0.763339	
6.4869	  0.053520	  0.332791	  0.754420	
6.52016	  0.052803	  0.324800	  0.748844	
6.55343	  0.051830	  0.323334	  0.745724	
6.58669	  0.050831	  0.330664	  0.745394	
6.61996	  0.049975	  0.348588	  0.746972	
6.65323	  0.049563	  0.374982	  0.749686	
6.68649	  0.049773	  0.405337	  0.753498	
6.71976	  0.050685	  0.435849	  0.758226	
6.75302	  0.051996	  0.460406	  0.762526	
6.78629	  0.053214	  0.475121	  0.765152	
6.81956	  0.054224	  0.481864	  0.768579	
6.85282	  0.055192	  0.483313	  0.772705	
6.88609	  0.056336	  0.479886	  0.775538	
6.91935	  0.057690	  0.473648	  0.778095	
6.95262	  0.059023	  0.465268	  0.783101	
6.98589	  0.059921	  0.453673	  0.791203	
7.01915	  0.059927	  0.440562	  0.798694	
7.05242	  0.059047	  0.430346	  0.800965	
7.08569	  0.057485	  0.426043	  0.797837	
7.11895	  0.055551	  0.429070	  0.791766	
7.15222	  0.053746	  0.437760	  0.783955	
7.18548	  0.052393	  0.449035	  0.774395	
7.21875	  0.051671	  0.463306	  0.764627	
7.25202	  0.051430	  0.481007	  0.756719	
7.28528	  0.051263	  0.498897	  0.750311	
7.31855	  0.050937	  0.514246	  0.746445	
7.35181	  0.050422	  0.526355	  0.744234	
7.38508	  0.049875	  0.537629	  0.743318	
7.41835	  0.049595	  0.550505	  0.744769	
7.45161	  0.049925	  0.565766	  0.750044	
7.48488	  0.051035	  0.583556	  0.756369	
7.51815	  0.052852	  0.601503	  0.761131	
7.55141	  0.055000	  0.614184	  0.761353	
7.58468	  0.057158	  0.616316	  0.756402	
7.61794	  0.058918	  0.604364	  0.747688	
7.65121	  0.059879	  0.577904	  0.735631	
7.68448	  0.059920	  0.540727	  0.719044	
7.71774	  0.059155	  0.501339	  0.700906	
7.75101	  0.057582	  0.467522	  0.684237	
7.78427	  0.055426	  0.444294	  0.669998	
7.81754	  0.053212	  0.432785	  0.660576	
7.85081	  0.051386	  0.429093	  0.658778	
7.88407	  0.050318	  0.429392	  0.662575	
7.91734	  0.050072	  0.433296	  0.667090	
7.9506	  0.050521	  0.441700	  0.666968	
7.98387	  0.051588	  0.458115	  0.661869	
8.01714	  0.053254	  0.486371	  0.655097	
8.0504	  0.055684	  0.527829	  0.651861	
8.08367	  0.058707	  0.578821	  0.655428	
8.11694	  0.062027	  0.634587	  0.666457	
8.1502	  0.065838	  0.690042	  0.683340	
8.18347	  0.070930	  0.742214	  0.701775	
8.21673	  0.077972	  0.790543	  0.718987	
8.25	  0.087222	  0.835486	  0.734651	
8.28327	  0.098258	  0.875074	  0.748881	
8.31653	  0.109957	  0.906101	  0.762774	
8.3498	  0.120924	  0.927314	  0.777879	
8.38306	  0.129706	  0.938515	  0.796224	
8.41633	  0.135204	  0.938767	  0.820228	
8.4496	  0.136885	  0.928079	  0.848524	
8.48286	  0.135055	  0.909101	  0.874877	
8.51613	  0.130397	  0.887168	  0.892127	
8.5494	  0.124152	  0.866490	  0.904049	
8.58266	  0.117332	  0.849870	  0.914242	
8.61593	  0.110664	  0.839212	  0.921668	
8.64919	  0.104979	  0.835220	  0.925136	
8.68246	  0.100807	  0.838098	  0.924815	
8.71573	  0.098464	  0.847054	  0.919418	
8.74899	  0.098246	  0.860316	  0.908512	
8.78226	  0.100059	  0.869007	  0.893177	
8.81552	  0.103103	  0.865586	  0.875767	
8.84879	  0.106306	  0.851544	  0.860920	
8.88206	  0.108656	  0.831572	  0.850985	
8.91532	  0.109494	  0.809926	  0.844519	
8.94859	  0.108757	  0.791097	  0.836420	
8.98185	  0.106951	  0.779923	  0.826827	
9.01512	  0.104567	  0.778282	  0.815860	
9.04839	  0.102380	  0.785747	  0.805253	
9.08165	  0.100871	  0.800682	  0.794839	
9.11492	  0.100070	  0.819490	  0.782899	
9.14819	  0.099968	  0.838492	  0.771226	
9.18145	  0.100591	  0.856840	  0.762464	
9.21472	  0.101370	  0.877275	  0.755222	
9.24798	  0.102042	  0.900603	  0.750403	
9.28125	  0.102464	  0.924755	  0.746994	
9.31452	  0.103180	  0.942136	  0.746871	
9.34778	  0.104565	  0.945621	  0.751941	
9.38105	  0.106574	  0.936323	  0.759649	
9.41431	  0.108375	  0.918110	  0.762054	
9.44758	  0.108500	  0.893464	  0.751006	
9.48085	  0.105748	  0.864496	  0.726348	
9.51411	  0.100055	  0.834523	  0.692598	
9.54738	  0.092263	  0.807283	  0.658344	
9.58065	  0.083292	  0.783194	  0.629264	
9.61391	  0.073717	  0.760561	  0.605389	
9.64718	  0.064233	  0.734391	  0.582772	
9.68044	  0.055728	  0.697601	  0.559533	
9.71371	  0.048890	  0.648859	  0.533588	
9.74698	  0.043763	  0.593933	  0.502692	
9.78024	  0.039898	  0.538538	  0.466677	
9.81351	  0.036718	  0.485308	  0.428196	
9.84677	  0.033662	  0.435708	  0.389793	
9.88004	  0.030619	  0.390142	  0.354335	
9.91331	  0.027789	  0.350019	  0.324659	
9.94657	  0.025479	  0.316492	  0.302345	
9.97984	  0.023860	  0.289839	  0.288066	
10.0131	  0.022873	  0.268732	  0.281078	
10.0464	  0.022422	  0.251009	  0.280209	
10.0796	  0.022273	  0.235583	  0.284054	
10.1129	  0.022297	  0.222039	  0.290732	
10.1462	  0.022296	  0.209460	  0.295462	
10.1794	  0.022126	  0.196641	  0.292064	
10.2127	  0.021917	  0.182354	  0.279024	
10.246	  0.021895	  0.167119	  0.260935	
10.2792	  0.022055	  0.152081	  0.240671	
10.3125	  0.022166	  0.137250	  0.216870	
10.3458	  0.022050	  0.122398	  0.188980	
10.379	  0.021615	  0.108365	  0.161245	
10.4123	  0.020756	  0.096076	  0.136151	
10.4456	  0.019640	  0.085679	  0.113483	
